<?xml version="1.0" encoding="utf-8"?>
<!-- Generator: Adobe Illustrator 19.2.1, SVG Export Plug-In . SVG Version: 6.00 Build 0)  -->
<svg version="1.1" id="Layer_1" xmlns="http://www.w3.org/2000/svg" xmlns:xlink="http://www.w3.org/1999/xlink" x="0px" y="0px"
	 viewBox="0 0 120 60" style="enable-background:new 0 0 120 60;" xml:space="preserve">
<style type="text/css">
	.st0{fill:#B5B5B5;}
	.st1{fill:#160114;}
	.st2{fill:#B81E76;}
	.st3{fill:#ED1175;}
	.st4{fill:#761113;}
	.st5{fill:#C72026;}
</style>
<g>
	<g>
		<path class="st0" d="M88.8,13.7c4.3,0,8.5,1.7,11.6,4.8c3,3,4.8,7.3,4.8,11.6c0,3.2-1,6.4-2.8,9.1l-0.2,0.3l-0.3-0.3
			c-0.2-0.2-0.5-0.5-0.7-0.7l-0.2-0.2l0.2-0.2c1.6-2.4,2.4-5.2,2.4-8c0-3.9-1.6-7.7-4.3-10.4c-2.7-2.7-6.6-4.3-10.4-4.3
			c-3.9,0-7.7,1.6-10.4,4.3c-2.7,2.7-4.3,6.6-4.3,10.4c0,3.9,1.6,7.7,4.3,10.4c2.7,2.7,6.5,4.3,10.4,4.3c2.2,0,4.4-0.5,6.4-1.4
			l0.2-0.1l0.2,0.2c0.2,0.2,0.5,0.5,0.7,0.7l0.4,0.3l-0.4,0.2c-2.3,1.2-4.9,1.8-7.4,1.8c-4.3,0-8.5-1.7-11.6-4.8
			c-3-3-4.8-7.3-4.8-11.6c0-4.3,1.7-8.5,4.8-11.6C80.2,15.4,84.5,13.6,88.8,13.7z"/>
		<path class="st1" d="M88.8,14c8.8,0,16,7.2,16,16c0,3.3-1,6.4-2.7,8.9c-0.2-0.2-0.5-0.4-0.7-0.7c1.5-2.4,2.4-5.2,2.4-8.2
			c0-8.3-6.7-15.1-15.1-15.1S73.6,21.6,73.6,30s6.7,15.1,15.1,15.1c2.3,0,4.5-0.5,6.5-1.5c0.2,0.2,0.5,0.5,0.8,0.7
			c-2.2,1.1-4.7,1.7-7.3,1.7c-8.8,0-16-7.2-16-16S79.9,14,88.8,14z"/>
	</g>
	<g>
		<path class="st2" d="M88.8,10.7c-5.1,0-10.1,2.1-13.7,5.7s-5.7,8.6-5.7,13.7s2.1,10.1,5.7,13.7s8.6,5.7,13.7,5.7
			c3.7,0,7.3-1.1,10.4-3.1l0.2-0.1l0.2,0.1c1,0.5,2,0.9,3.1,1.2l0.7,0.2l-0.5,0.4c-4,3.1-9,4.8-14,4.8c-6,0-11.9-2.4-16.2-6.7
			C68.4,42.1,66,36.1,66,30.1s2.4-11.9,6.7-16.2c4.2-4.3,10.2-6.7,16.2-6.7s11.9,2.4,16.2,6.7c4.3,4.2,6.7,10.2,6.7,16.2
			c0,4.5-1.3,8.9-3.8,12.7l-0.1,0.2l-0.3-0.1c-0.9-0.4-1.8-0.8-2.6-1.3l-0.3-0.2l0.2-0.3c2.2-3.2,3.4-7.1,3.4-11
			c0-5.1-2.1-10.1-5.7-13.7C98.9,12.7,93.8,10.7,88.8,10.7z"/>
		<path class="st3" d="M88.8,10.3c-10.9,0-19.7,8.8-19.7,19.7c0,10.9,8.8,19.7,19.7,19.7c3.9,0,7.5-1.1,10.6-3.1
			c1,0.5,2.1,1,3.2,1.2c-3.8,3-8.6,4.7-13.8,4.7c-12.4,0-22.5-10.1-22.5-22.5S76.4,7.5,88.8,7.5s22.5,10.1,22.5,22.5
			c0,4.6-1.4,8.9-3.8,12.5c-0.9-0.3-1.7-0.8-2.6-1.3c2.2-3.2,3.5-7,3.5-11.2C108.4,19.1,99.6,10.3,88.8,10.3z"/>
	</g>
	<g>
		<path class="st4" d="M80.3,38h0.5c0.3,0,0.7-0.1,0.9-0.3c0.2-0.2,0.2-0.5,0.2-0.7V22.9c0-0.3,0-0.5-0.2-0.7s-0.6-0.3-0.9-0.3H80
			v-1.8h10.1c1.6,0,3.3,0.3,4.7,1.3c1.2,0.9,1.8,2.5,1.8,4c0,1.4-0.5,2.7-1.4,3.7c-0.8,0.8-1.8,1.3-2.9,1.5c1.9,1.3,3.3,3.2,4.8,5
			c2,2.6,4.2,5.1,7,6.9c2.1,1.3,4.5,2.1,7,2.4l1.4,0.1l-1.3,0.5c-1.7,0.7-3.4,1.1-5.2,1.1c-5.6,0-10.1-4.1-13-8.5l-4.8-7.3
			c-0.2-0.3-0.5-0.6-0.9-0.7L87,30v-0.9h1.5c0.9,0,1.7-0.2,2.4-0.9c0.8-0.8,1-1.9,1-3c-0.1-1.5-1.1-3-2.6-3.5c-0.1,0-0.3,0-0.4,0h-2
			V37c0,0.3,0,0.5,0.2,0.7S87.7,38,88,38h0.8v1.8H80V38H80.3z"/>
		<path class="st5" d="M80.3,38.3h0.5c0.7,0,1.5-0.3,1.5-1.4V22.8c0-1.1-0.8-1.4-1.5-1.4h-0.5v-1.1h9.8c3.8,0,6.1,1.5,6.1,5
			c0,2.7-1.9,5-5,5c5.6,2.9,8.5,13.9,19.8,14.8c-8.7,3.5-14.6-2.4-17.9-7.3l-4.8-7.3c-0.2-0.4-0.7-0.7-1.1-0.8v-0.2h1.2
			c3,0,3.7-2.5,3.7-4.2c0-1.9-1.8-3.9-3.3-3.9h-2.3V37c0,1.1,0.8,1.4,1.5,1.4h0.5v1.1h-8v-1.2H80.3z"/>
	</g>
</g>
<path class="st1" d="M53.1,24.2h-2.2v-12h2.2V24.2z M52.7,28.5v-2.2h1c0.7,0,1.3-0.6,1.3-1.3v-7.7h2.2V25c0,1.9-1.5,3.5-3.5,3.5
	H52.7z M48.9,17.3v3.5c0,1.9-1.5,3.5-3.5,3.5H14.6c-0.4,0-0.7,0-1.1-0.2V25c0,1.9-1.5,3.5-3.5,3.5H9v-2.2h1c0.7,0,1.3-0.6,1.3-1.3
	v-7.7h2.2v3.5c0,0.3,0.1,0.6,0.3,0.8c0.2,0.2,0.5,0.3,0.8,0.3h30.6c0.7,0,1.3-0.6,1.3-1.3v-3.4h2.4V17.3z M32,25.4
	c0.4,0,0.7,0.1,1,0.4s0.4,0.6,0.4,1s-0.1,0.7-0.4,1s-0.6,0.4-1,0.4s-0.7-0.1-1-0.4s-0.4-0.6-0.4-1s0.1-0.7,0.4-1
	C31.2,25.6,31.6,25.4,32,25.4z M28.3,25.4c0.4,0,0.7,0.1,1,0.4s0.4,0.6,0.4,1s-0.1,0.7-0.4,1s-0.6,0.4-1,0.4s-0.7-0.1-1-0.4
	s-0.4-0.6-0.4-1s0.1-0.7,0.4-1C27.6,25.6,27.9,25.4,28.3,25.4z M12.5,12.8c0.4,0,0.7,0.1,1,0.4s0.4,0.6,0.4,1s-0.1,0.7-0.4,1
	c-0.3,0.3-0.6,0.4-1,0.4s-0.7-0.1-1-0.4s-0.4-0.6-0.4-1s0.1-0.7,0.4-1C11.8,13,12.1,12.8,12.5,12.8z"/>
<path class="st1" d="M25,34.8h2.2v9.1H25V34.8z M26.1,31.1c0.4,0,0.7,0.1,1,0.4s0.4,0.6,0.4,1s-0.1,0.7-0.4,1
	c-0.2,0.3-0.6,0.4-1,0.4s-0.7-0.1-1-0.4s-0.4-0.6-0.4-1s0.1-0.7,0.4-1S25.8,31.1,26.1,31.1z M42.9,35.9h-9.4c-0.4,0-0.8,0.3-0.8,0.8
	V37c0,0.4,0.4,0.7,0.9,0.7h6.2c1.5,0,3,1.3,3.1,2.8v0.3c0,0,0,0.1,0,0.2c0,1.6-1.4,3-3,3h-9.3v-2.2h9.3c0.4,0,0.8-0.3,0.8-0.8v-0.3
	c0-0.4-0.4-0.7-0.9-0.7h-6.2c-1.5,0-3-1.3-3.1-2.8v-0.4c0-1.6,1.4-3,3-3h9.4V35.9z M57.4,41.7v2.2h-7.5c-1.4,0-2.9-0.4-3.9-1.5
	c-0.8-0.9-1.1-2.1-1.1-3.3v-0.9c0.1-1.4,0.7-2.9,1.9-3.7c0.5-0.3,1-0.6,1.6-0.7s1.2-0.1,1.8-0.1h4.1c1.5,0,3,1.3,3.1,2.8v0.1v0.2
	c0,1.6-1.4,3-3,3h-5.1v-2.2h5.1c0.4,0,0.8-0.3,0.8-0.8v-0.2c0-0.4-0.4-0.7-0.9-0.7h-4.1c-0.4,0-0.9,0-1.3,0.1
	c-0.3,0.1-0.6,0.2-0.8,0.4c-0.6,0.4-0.9,1.2-0.9,1.9v0.8c0,0.6,0.1,1.3,0.6,1.8c0.5,0.6,1.4,0.7,2.2,0.7h7.4V41.7z M9.3,43.9v-5.8
	c0-2.6,2-4.4,4.4-4.4h4.9c1.7,0,3.1,1.4,3.1,3.1v1c-0.1,1.9-1.6,3.1-3.1,3.1h-0.7l5.7,6.9h-2.9l-7.5-9.1h5.3c0.6,0,1-0.6,1-1v-0.8
	c0-0.6-0.5-1.1-1-1h-3.9c-0.6,0-1,0-1.3,0.1s-0.6,0.2-0.8,0.4c-0.6,0.4-0.9,1.1-1,1.9v5.6L9.3,43.9L9.3,43.9z"/>
<g>
	<path class="st1" d="M18.3,16.9c-1,0-1.3-0.5-1.3-1.2s0.4-1.3,1.3-1.3c0.6,0,1,0.2,1,0.2v1.7h0.5v0.5L18.3,16.9L18.3,16.9z
		 M17.4,13.8c0-0.2,0.1-0.3,0.3-0.3s0.3,0.2,0.3,0.3c0,0.2-0.1,0.3-0.3,0.3C17.6,14.2,17.4,14,17.4,13.8z M18.7,15.1
		c0,0-0.2-0.1-0.5-0.1c-0.4,0-0.6,0.3-0.6,0.7c0,0.5,0.2,0.7,0.8,0.7h0.3V15.1z M18.3,13.8c0-0.2,0.1-0.3,0.3-0.3s0.3,0.2,0.3,0.3
		c0,0.2-0.1,0.3-0.3,0.3C18.4,14.2,18.3,14,18.3,13.8z"/>
	<path class="st1" d="M19.7,16.4h0.9v-1.8h0.7V17h-1.6V16.4z M20.1,18c-0.2,0-0.3-0.2-0.3-0.3c0-0.2,0.1-0.3,0.3-0.3
		c0.2,0,0.3,0.1,0.3,0.3C20.5,17.8,20.3,18,20.1,18z M21,18c-0.2,0-0.3-0.2-0.3-0.3c0-0.2,0.1-0.3,0.3-0.3s0.3,0.1,0.3,0.3
		C21.3,17.8,21.2,18,21,18z"/>
	<path class="st1" d="M21.9,18.1v-0.5c0,0,0.4,0.1,0.8,0.1c0.5,0,0.9-0.2,0.9-0.7v-0.1h-0.4c-1,0-1.3-0.5-1.3-1.2s0.4-1.3,1.3-1.3
		c0.6,0,1,0.2,1,0.2v2.3c0,0.7-0.4,1.3-1.6,1.3C22.3,18.1,21.9,18.1,21.9,18.1z M23.6,15.1c0,0-0.2-0.1-0.5-0.1
		c-0.4,0-0.6,0.3-0.6,0.7c0,0.5,0.2,0.7,0.8,0.7h0.3L23.6,15.1L23.6,15.1z"/>
	<path class="st1" d="M25,13.4h0.7v3.5H25V13.4z"/>
	<path class="st1" d="M25.5,18.1l0.1-0.5c0.1,0,0.2,0.1,0.4,0.1c0.3,0,0.5-0.2,0.5-0.7v-2.4h0.7V17c0,0.6-0.2,1.3-1.2,1.3
		C25.8,18.2,25.6,18.1,25.5,18.1z M26.5,13.8c0-0.2,0.2-0.3,0.3-0.3s0.3,0.2,0.3,0.3c0,0.2-0.2,0.3-0.3,0.3S26.5,14,26.5,13.8z"/>
	<path class="st1" d="M30,15.9h-0.1c-0.3,0-0.4,0.2-0.3,0.6l0.3,1.6h-0.6L29,16.5c-0.1-0.7,0.1-1.2,0.9-1.2H30
		c0.1-0.5,0.5-0.9,1.3-0.9s1.1,0.5,1.1,1.2v0.7h0.4v0.5h-1.5C30.5,16.9,30.1,16.5,30,15.9z M31.8,15.7c0-0.5-0.2-0.7-0.5-0.7
		c-0.4,0-0.6,0.3-0.6,0.7c0,0.5,0.2,0.7,0.8,0.7h0.4L31.8,15.7L31.8,15.7z"/>
	<path class="st1" d="M32.8,16.4h0.8c-0.2-0.1-0.4-0.4-0.4-0.7c0-0.6,0.4-1.2,1.3-1.2c0.3,0,0.6,0.1,0.6,0.1L35,15.1
		c0,0-0.2-0.1-0.5-0.1c-0.4,0-0.6,0.3-0.6,0.6c0,0.4,0.3,0.7,1.1,0.7h0.4v0.5h-2.6L32.8,16.4L32.8,16.4z"/>
	<path class="st1" d="M36,13.4h0.7v3h0.5v0.5H36V13.4z"/>
	<path class="st1" d="M37,16.4h0.6v-3h0.7v1.3c0,0.2,0,0.5-0.1,0.7l0,0c0.2-0.6,0.8-0.9,1.3-0.9c0.7,0,1,0.5,1,1.2
		c0,0.2,0,0.5,0,0.7H41v0.5h-4V16.4z M39.9,16.4c0-0.2,0-0.4,0-0.6c0-0.5-0.1-0.8-0.5-0.8c-0.5,0-1,0.7-1.1,1.4H39.9z"/>
	<path class="st1" d="M42.7,16.9c-0.6,0-0.9-0.1-1-0.4c-0.1,0.3-0.4,0.4-0.7,0.4h-0.1v-0.5H41c0.2,0,0.4-0.1,0.4-0.6
		c0-0.7,0.4-1.3,1.3-1.3c0.8,0,1.2,0.5,1.2,1.2v1.2L42.7,16.9L42.7,16.9z M43.2,15.7c0-0.5-0.2-0.7-0.6-0.7S42,15.3,42,15.7
		c0,0.4,0.2,0.7,0.7,0.7h0.4v-0.7H43.2z"/>
</g>
</svg>
