<?xml version="1.0" encoding="utf-8"?>
<!-- Generator: Adobe Illustrator 26.0.3, SVG Export Plug-In . SVG Version: 6.00 Build 0)  -->
<svg version="1.1" id="Layer_1" xmlns="http://www.w3.org/2000/svg" xmlns:xlink="http://www.w3.org/1999/xlink" x="0px" y="0px"
	 viewBox="0 0 154.34 82.43" style="enable-background:new 0 0 154.34 82.43;" xml:space="preserve">
<style type="text/css">
	.st0{fill:#B5B5B5;}
	.st1{fill:#160114;}
	.st2{fill:#B81E76;}
	.st3{fill:#ED1175;}
	.st4{fill:#761113;}
	.st5{fill:#C72026;}
</style>
<g>
	<g>
		<g>
			<path class="st0" d="M117.47,17.41c6.08,0,12.01,2.4,16.39,6.78c4.24,4.24,6.78,10.32,6.78,16.39c0,4.52-1.41,9.05-3.96,12.86
				l-0.28,0.42l-0.42-0.42c-0.28-0.28-0.71-0.71-0.99-0.99l-0.28-0.28l0.28-0.28c2.26-3.39,3.39-7.35,3.39-11.31
				c0-5.51-2.26-10.88-6.08-14.7c-3.82-3.82-9.33-6.08-14.7-6.08c-5.51,0-10.88,2.26-14.7,6.08c-3.82,3.82-6.08,9.33-6.08,14.7
				c0,5.51,2.26,10.88,6.08,14.7c3.82,3.82,9.19,6.08,14.7,6.08c3.11,0,6.22-0.71,9.05-1.98l0.28-0.14l0.28,0.28
				c0.28,0.28,0.71,0.71,0.99,0.99l0.57,0.42l-0.57,0.28c-3.25,1.7-6.93,2.54-10.46,2.54c-6.08,0-12.01-2.4-16.39-6.78
				c-4.24-4.24-6.78-10.32-6.78-16.39s2.4-12.01,6.78-16.39C105.32,19.81,111.39,17.27,117.47,17.41z"/>
			<path class="st1" d="M117.47,17.83c12.44,0,22.61,10.18,22.61,22.61c0,4.66-1.41,9.05-3.82,12.58c-0.28-0.28-0.71-0.57-0.99-0.99
				c2.12-3.39,3.39-7.35,3.39-11.59c0-11.73-9.47-21.34-21.34-21.34s-21.34,9.47-21.34,21.34s9.47,21.34,21.34,21.34
				c3.25,0,6.36-0.71,9.19-2.12c0.28,0.28,0.71,0.71,1.13,0.99c-3.11,1.55-6.64,2.4-10.32,2.4c-12.44,0-22.61-10.18-22.61-22.61
				S104.89,17.83,117.47,17.83z"/>
		</g>
		<g>
			<path class="st2" d="M117.47,13.17c-7.21,0-14.27,2.97-19.36,8.06c-5.09,5.09-8.06,12.15-8.06,19.36s2.97,14.27,8.06,19.36
				c5.09,5.09,12.15,8.06,19.36,8.06c5.23,0,10.32-1.55,14.7-4.38l0.28-0.14l0.28,0.14c1.41,0.71,2.83,1.27,4.38,1.7l0.99,0.28
				l-0.71,0.57c-5.65,4.38-12.72,6.78-19.79,6.78c-8.48,0-16.82-3.39-22.9-9.47c-6.08-5.94-9.47-14.42-9.47-22.9
				s3.39-16.82,9.47-22.9c5.94-6.08,14.42-9.47,22.9-9.47s16.82,3.39,22.9,9.47c6.08,5.94,9.47,14.42,9.47,22.9
				c0,6.36-1.84,12.58-5.37,17.95l-0.14,0.28l-0.42-0.14c-1.27-0.57-2.54-1.13-3.67-1.84l-0.42-0.28l0.28-0.42
				c3.11-4.52,4.81-10.03,4.81-15.55c0-7.21-2.97-14.27-8.06-19.36C131.75,15.99,124.54,13.17,117.47,13.17z"/>
			<path class="st3" d="M117.47,12.6c-15.41,0-27.84,12.44-27.84,27.84s12.44,27.84,27.84,27.84c5.51,0,10.6-1.55,14.98-4.38
				c1.41,0.71,2.97,1.41,4.52,1.7c-5.37,4.24-12.15,6.64-19.5,6.64c-17.53,0-31.8-14.27-31.8-31.8s14.27-31.8,31.8-31.8
				s31.8,14.27,31.8,31.8c0,6.5-1.98,12.58-5.37,17.67c-1.27-0.42-2.4-1.13-3.67-1.84c3.11-4.52,4.95-9.89,4.95-15.83
				C145.17,25.04,132.74,12.6,117.47,12.6z"/>
		</g>
		<g>
			<path class="st4" d="M105.46,51.75h0.71c0.42,0,0.99-0.14,1.27-0.42c0.28-0.28,0.28-0.71,0.28-0.99V30.41
				c0-0.42,0-0.71-0.28-0.99c-0.28-0.28-0.85-0.42-1.27-0.42h-1.13v-2.54h14.27c2.26,0,4.66,0.42,6.64,1.84
				c1.7,1.27,2.54,3.53,2.54,5.65c0,1.98-0.71,3.82-1.98,5.23c-1.13,1.13-2.54,1.84-4.1,2.12c2.69,1.84,4.66,4.52,6.78,7.07
				c2.83,3.67,5.94,7.21,9.89,9.75c2.97,1.84,6.36,2.97,9.89,3.39l1.98,0.14l-1.84,0.71c-2.4,0.99-4.81,1.55-7.35,1.55
				c-7.91,0-14.27-5.79-18.37-12.01l-6.78-10.32c-0.28-0.42-0.71-0.85-1.27-0.99l-0.42-0.14v-1.27h2.12c1.27,0,2.4-0.28,3.39-1.27
				c1.13-1.13,1.41-2.69,1.41-4.24c-0.14-2.12-1.55-4.24-3.67-4.95c-0.14,0-0.42,0-0.57,0h-2.83v21.62c0,0.42,0,0.71,0.28,0.99
				c0.28,0.28,0.85,0.42,1.27,0.42h1.13v2.54h-12.44v-2.54H105.46z"/>
			<path class="st5" d="M105.46,52.18h0.71c0.99,0,2.12-0.42,2.12-1.98V30.27c0-1.55-1.13-1.98-2.12-1.98h-0.71v-1.55h13.85
				c5.37,0,8.62,2.12,8.62,7.07c0,3.82-2.69,7.07-7.07,7.07c7.91,4.1,12.01,19.65,27.98,20.92c-12.3,4.95-20.63-3.39-25.3-10.32
				l-6.78-10.32c-0.28-0.57-0.99-0.99-1.55-1.13v-0.28h1.7c4.24,0,5.23-3.53,5.23-5.94c0-2.69-2.54-5.51-4.66-5.51h-3.25v22.05
				c0,1.55,1.13,1.98,2.12,1.98h0.71v1.55h-11.31v-1.7H105.46z"/>
		</g>
	</g>
	<path class="st1" d="M67.01,32.25h-3.11V15.29h3.11V32.25z M66.45,38.32v-3.11h1.41c0.99,0,1.84-0.85,1.84-1.84V22.5h3.11v10.88
		c0,2.69-2.12,4.95-4.95,4.95H66.45z M61.08,22.5v4.95c0,2.69-2.12,4.95-4.95,4.95H12.6c-0.57,0-0.99,0-1.55-0.28v1.27
		c0,2.69-2.12,4.95-4.95,4.95H4.69v-3.11H6.1c0.99,0,1.84-0.85,1.84-1.84V22.5h3.11v4.95c0,0.42,0.14,0.85,0.42,1.13
		C11.75,28.86,12.18,29,12.6,29h43.25c0.99,0,1.84-0.85,1.84-1.84v-4.81h3.39V22.5z M37.19,33.94c0.57,0,0.99,0.14,1.41,0.57
		s0.57,0.85,0.57,1.41c0,0.57-0.14,0.99-0.57,1.41c-0.42,0.42-0.85,0.57-1.41,0.57c-0.57,0-0.99-0.14-1.41-0.57
		s-0.57-0.85-0.57-1.41c0-0.57,0.14-0.99,0.57-1.41C36.06,34.23,36.63,33.94,37.19,33.94z M31.96,33.94c0.57,0,0.99,0.14,1.41,0.57
		s0.57,0.85,0.57,1.41c0,0.57-0.14,0.99-0.57,1.41s-0.85,0.57-1.41,0.57c-0.57,0-0.99-0.14-1.41-0.57
		c-0.42-0.42-0.57-0.85-0.57-1.41c0-0.57,0.14-0.99,0.57-1.41C30.97,34.23,31.4,33.94,31.96,33.94z M9.63,16.14
		c0.57,0,0.99,0.14,1.41,0.57s0.57,0.85,0.57,1.41s-0.14,0.99-0.57,1.41c-0.42,0.42-0.85,0.57-1.41,0.57
		c-0.57,0-0.99-0.14-1.41-0.57c-0.42-0.42-0.57-0.85-0.57-1.41s0.14-0.99,0.57-1.41C8.64,16.42,9.07,16.14,9.63,16.14z"/>
	<path class="st1" d="M27.3,47.23h3.11v12.86H27.3V47.23z M28.85,42c0.57,0,0.99,0.14,1.41,0.57c0.42,0.42,0.57,0.85,0.57,1.41
		c0,0.57-0.14,0.99-0.57,1.41c-0.28,0.42-0.85,0.57-1.41,0.57c-0.57,0-0.99-0.14-1.41-0.57c-0.42-0.42-0.57-0.85-0.57-1.41
		c0-0.57,0.14-0.99,0.57-1.41S28.43,42,28.85,42z M52.6,48.78H39.31c-0.57,0-1.13,0.42-1.13,1.13v0.42c0,0.57,0.57,0.99,1.27,0.99
		h8.76c2.12,0,4.24,1.84,4.38,3.96v0.42c0,0,0,0.14,0,0.28c0,2.26-1.98,4.24-4.24,4.24H35.21v-3.11h13.14
		c0.57,0,1.13-0.42,1.13-1.13v-0.42c0-0.57-0.57-0.99-1.27-0.99h-8.76c-2.12,0-4.24-1.84-4.38-3.96v-0.57
		c0-2.26,1.98-4.24,4.24-4.24H52.6V48.78z M73.09,56.98v3.11h-10.6c-1.98,0-4.1-0.57-5.51-2.12c-1.13-1.27-1.55-2.97-1.55-4.66
		v-1.27c0.14-1.98,0.99-4.1,2.69-5.23c0.71-0.42,1.41-0.85,2.26-0.99c0.85-0.14,1.7-0.14,2.54-0.14h5.79c2.12,0,4.24,1.84,4.38,3.96
		v0.14v0.28c0,2.26-1.98,4.24-4.24,4.24h-7.21v-3.11h7.21c0.57,0,1.13-0.42,1.13-1.13v-0.28c0-0.57-0.57-0.99-1.27-0.99h-5.79
		c-0.57,0-1.27,0-1.84,0.14c-0.42,0.14-0.85,0.28-1.13,0.57c-0.85,0.57-1.27,1.7-1.27,2.69v1.13c0,0.85,0.14,1.84,0.85,2.54
		c0.71,0.85,1.98,0.99,3.11,0.99h10.46C73.09,56.84,73.09,56.98,73.09,56.98z M5.11,60.09v-8.2c0-3.67,2.83-6.22,6.22-6.22h6.93
		c2.4,0,4.38,1.98,4.38,4.38v1.41c-0.14,2.69-2.26,4.38-4.38,4.38h-0.99l8.06,9.75h-4.1l-10.6-12.86h7.49
		c0.85,0,1.41-0.85,1.41-1.41V50.2c0-0.85-0.71-1.55-1.41-1.41H12.6c-0.85,0-1.41,0-1.84,0.14c-0.42,0.14-0.85,0.28-1.13,0.57
		c-0.85,0.57-1.27,1.55-1.41,2.69v7.91L5.11,60.09L5.11,60.09z"/>
	<g>
		<path class="st1" d="M17.83,21.93c-1.41,0-1.84-0.71-1.84-1.7s0.57-1.84,1.84-1.84c0.85,0,1.41,0.28,1.41,0.28v2.4h0.71v0.71
			L17.83,21.93L17.83,21.93z M16.56,17.55c0-0.28,0.14-0.42,0.42-0.42s0.42,0.28,0.42,0.42c0,0.28-0.14,0.42-0.42,0.42
			C16.84,18.11,16.56,17.83,16.56,17.55z M18.4,19.39c0,0-0.28-0.14-0.71-0.14c-0.57,0-0.85,0.42-0.85,0.99
			c0,0.71,0.28,0.99,1.13,0.99h0.42C18.4,21.22,18.4,19.39,18.4,19.39z M17.83,17.55c0-0.28,0.14-0.42,0.42-0.42
			s0.42,0.28,0.42,0.42c0,0.28-0.14,0.42-0.42,0.42C17.97,18.11,17.83,17.83,17.83,17.55z"/>
		<path class="st1" d="M19.81,21.22h1.27v-2.54h0.99v3.39h-2.26V21.22z M20.37,23.48c-0.28,0-0.42-0.28-0.42-0.42
			c0-0.28,0.14-0.42,0.42-0.42c0.28,0,0.42,0.14,0.42,0.42C20.94,23.2,20.66,23.48,20.37,23.48z M21.65,23.48
			c-0.28,0-0.42-0.28-0.42-0.42c0-0.28,0.14-0.42,0.42-0.42s0.42,0.14,0.42,0.42C22.07,23.2,21.93,23.48,21.65,23.48z"/>
		<path class="st1" d="M22.92,23.63v-0.71c0,0,0.57,0.14,1.13,0.14c0.71,0,1.27-0.28,1.27-0.99v-0.14h-0.57
			c-1.41,0-1.84-0.71-1.84-1.7s0.57-1.84,1.84-1.84c0.85,0,1.41,0.28,1.41,0.28v3.25c0,0.99-0.57,1.84-2.26,1.84
			C23.48,23.63,22.92,23.63,22.92,23.63z M25.32,19.39c0,0-0.28-0.14-0.71-0.14c-0.57,0-0.85,0.42-0.85,0.99
			c0,0.71,0.28,0.99,1.13,0.99h0.42L25.32,19.39L25.32,19.39z"/>
		<path class="st1" d="M27.3,16.98h0.99v4.95H27.3V16.98z"/>
		<path class="st1" d="M28.01,23.63l0.14-0.71c0.14,0,0.28,0.14,0.57,0.14c0.42,0,0.71-0.28,0.71-0.99v-3.39h0.99v3.39
			c0,0.85-0.28,1.84-1.7,1.84C28.43,23.77,28.15,23.63,28.01,23.63z M29.42,17.55c0-0.28,0.28-0.42,0.42-0.42s0.42,0.28,0.42,0.42
			c0,0.28-0.28,0.42-0.42,0.42S29.42,17.83,29.42,17.55z"/>
		<path class="st1" d="M34.37,20.52h-0.14c-0.42,0-0.57,0.28-0.42,0.85l0.42,2.26h-0.85l-0.42-2.26c-0.14-0.99,0.14-1.7,1.27-1.7
			h0.14c0.14-0.71,0.71-1.27,1.84-1.27s1.55,0.71,1.55,1.7v0.99h0.57v0.71H36.2C35.07,21.93,34.51,21.36,34.37,20.52z M36.91,20.23
			c0-0.71-0.28-0.99-0.71-0.99c-0.57,0-0.85,0.42-0.85,0.99c0,0.71,0.28,0.99,1.13,0.99h0.57L36.91,20.23L36.91,20.23z"/>
		<path class="st1" d="M38.32,21.22h1.13c-0.28-0.14-0.57-0.57-0.57-0.99c0-0.85,0.57-1.7,1.84-1.7c0.42,0,0.85,0.14,0.85,0.14
			l-0.14,0.71c0,0-0.28-0.14-0.71-0.14c-0.57,0-0.85,0.42-0.85,0.85c0,0.57,0.42,0.99,1.55,0.99H42v0.71h-3.67L38.32,21.22
			L38.32,21.22z"/>
		<path class="st1" d="M42.85,16.98h0.99v4.24h0.71v0.71h-1.7V16.98z"/>
		<path class="st1" d="M44.26,21.22h0.85v-4.24h0.99v1.84c0,0.28,0,0.71-0.14,0.99l0,0c0.28-0.85,1.13-1.27,1.84-1.27
			c0.99,0,1.41,0.71,1.41,1.7c0,0.28,0,0.71,0,0.99h0.71v0.71h-5.65V21.22z M48.36,21.22c0-0.28,0-0.57,0-0.85
			c0-0.71-0.14-1.13-0.71-1.13c-0.71,0-1.41,0.99-1.55,1.98H48.36z"/>
		<path class="st1" d="M52.32,21.93c-0.85,0-1.27-0.14-1.41-0.57c-0.14,0.42-0.57,0.57-0.99,0.57h-0.14v-0.71h0.14
			c0.28,0,0.57-0.14,0.57-0.85c0-0.99,0.57-1.84,1.84-1.84c1.13,0,1.7,0.71,1.7,1.7v1.7H52.32L52.32,21.93z M53.02,20.23
			c0-0.71-0.28-0.99-0.85-0.99s-0.85,0.42-0.85,0.99c0,0.57,0.28,0.99,0.99,0.99h0.57v-0.99H53.02z"/>
	</g>
</g>
</svg>
